<svg xmlns="http://www.w3.org/2000/svg" viewBox="0 0 512 512">
  <defs>
    <linearGradient id="g" x1="0" y1="0" x2="1" y2="1">
      <stop offset="0" stop-color="#58ee98"/>
      <stop offset="1" stop-color="#27c86d"/>
    </linearGradient>
  </defs>
  <rect width="512" height="512" rx="128" fill="#0c141b"/>
  <rect x="38" y="38" width="436" height="436" rx="112" fill="url(#g)"/>
  <path fill="#082516" d="M256 126c-82 0-137 54-137 137 0 83 55 137 137 137 24 0 46-5 64-14l27 31 48-41-29-33c17-23 27-50 27-80 0-83-55-137-137-137Zm0 76c36 0 58 24 58 61 0 8-1 15-4 22l-28-32-49 40 29 33h-6c-36 0-58-25-58-63 0-37 22-61 58-61Z"/>
</svg>
